<svg width="22" height="22" viewBox="0 0 22 22" fill="none" xmlns="http://www.w3.org/2000/svg">
<path fill-rule="evenodd" clip-rule="evenodd" d="M13.0625 4.12502C12.6828 4.12502 12.375 4.43282 12.375 4.81252V17.1875C12.375 17.5672 12.6828 17.875 13.0625 17.875H15.8125C16.1922 17.875 16.5 17.5672 16.5 17.1875V4.81252C16.5 4.43282 16.1922 4.12502 15.8125 4.12502H13.0625ZM6.1875 4.12503C5.8078 4.12503 5.5 4.43283 5.5 4.81253V17.1875C5.5 17.5672 5.8078 17.875 6.1875 17.875H8.9375C9.3172 17.875 9.625 17.5672 9.625 17.1875V4.81253C9.625 4.43283 9.3172 4.12503 8.9375 4.12503H6.1875Z" fill="white"/>
</svg>
