<svg width="99" height="51" viewBox="0 0 99 51" fill="none" xmlns="http://www.w3.org/2000/svg">
<rect x="12.2301" y="39.8546" width="74.3639" height="5.35956" rx="2.66037" fill="#FF7262"/>
<g opacity="0.01">
<rect width="99" height="34.5331" rx="2.66037" fill="#FF7262"/>
<path d="M12.0697 21.7994V12.0547H15.5432C16.3013 12.0547 16.9294 12.1927 17.4274 12.4687C17.9254 12.7446 18.2981 13.1221 18.5456 13.6011C18.793 14.0769 18.9167 14.613 18.9167 15.2093C18.9167 15.8089 18.7914 16.3481 18.5408 16.8271C18.2934 17.3029 17.9191 17.6804 17.4179 17.9595C16.9199 18.2355 16.2934 18.3735 15.5384 18.3735H13.1498V17.1269H15.4052C15.8842 17.1269 16.2728 17.0444 16.5709 16.8794C16.8691 16.7113 17.088 16.4829 17.2276 16.1943C17.3671 15.9056 17.4369 15.5773 17.4369 15.2093C17.4369 14.8414 17.3671 14.5147 17.2276 14.2292C17.088 13.9437 16.8675 13.72 16.5662 13.5583C16.268 13.3965 15.8747 13.3156 15.3862 13.3156H13.54V21.7994H12.0697ZM20.7941 21.7994V14.4909H22.1692V15.6518H22.2453C22.3786 15.2585 22.6133 14.9492 22.9495 14.724C23.289 14.4956 23.6728 14.3814 24.101 14.3814C24.1898 14.3814 24.2945 14.3846 24.415 14.3909C24.5388 14.3973 24.6355 14.4052 24.7053 14.4147V15.7756C24.6482 15.7597 24.5467 15.7423 24.4008 15.7232C24.2549 15.701 24.1089 15.6899 23.963 15.6899C23.6268 15.6899 23.327 15.7613 23.0637 15.904C22.8036 16.0436 22.5974 16.2387 22.4452 16.4893C22.2929 16.7367 22.2168 17.019 22.2168 17.3362V21.7994H20.7941ZM29.0926 21.9469C28.3726 21.9469 27.7524 21.793 27.2322 21.4853C26.7151 21.1745 26.3155 20.7383 26.0331 20.1768C25.754 19.6122 25.6144 18.9508 25.6144 18.1927C25.6144 17.4441 25.754 16.7843 26.0331 16.2133C26.3155 15.6423 26.7088 15.1967 27.2132 14.8763C27.7207 14.5559 28.3139 14.3957 28.9927 14.3957C29.4051 14.3957 29.8048 14.4639 30.1918 14.6003C30.5787 14.7367 30.9261 14.9508 31.2338 15.2426C31.5415 15.5345 31.7841 15.9135 31.9618 16.3798C32.1394 16.843 32.2282 17.406 32.2282 18.069V18.5733H26.4186V17.5075H30.8341C30.8341 17.1332 30.758 16.8017 30.6057 16.5131C30.4534 16.2212 30.2393 15.9913 29.9634 15.8231C29.6906 15.655 29.3702 15.571 29.0022 15.571C28.6025 15.571 28.2536 15.6693 27.9554 15.866C27.6604 16.0595 27.432 16.3132 27.2703 16.6273C27.1117 16.9381 27.0324 17.276 27.0324 17.6407V18.4734C27.0324 18.9619 27.118 19.3775 27.2893 19.72C27.4638 20.0626 27.7064 20.3243 28.0173 20.5051C28.3282 20.6828 28.6914 20.7716 29.1069 20.7716C29.3765 20.7716 29.6224 20.7335 29.8444 20.6574C30.0665 20.5781 30.2584 20.4607 30.4201 20.3053C30.5819 20.1499 30.7056 19.958 30.7913 19.7296L32.1378 19.9722C32.03 20.3687 31.8365 20.7161 31.5573 21.0143C31.2814 21.3093 30.934 21.5392 30.5153 21.7042C30.0998 21.866 29.6255 21.9469 29.0926 21.9469ZM34.0747 24.54V14.4909H35.4641V15.6756H35.583C35.6655 15.5234 35.7845 15.3473 35.9399 15.1475C36.0953 14.9476 36.311 14.7732 36.587 14.6241C36.863 14.4718 37.2278 14.3957 37.6814 14.3957C38.2714 14.3957 38.798 14.5448 39.2611 14.843C39.7242 15.1411 40.0874 15.571 40.3507 16.1324C40.6172 16.6939 40.7504 17.3695 40.7504 18.1594C40.7504 18.9492 40.6187 19.6265 40.3555 20.1911C40.0922 20.7526 39.7306 21.1856 39.2706 21.4901C38.8106 21.7914 38.2857 21.9421 37.6957 21.9421C37.2516 21.9421 36.8884 21.8676 36.606 21.7185C36.3269 21.5694 36.108 21.3949 35.9494 21.1951C35.7908 20.9952 35.6687 20.8176 35.583 20.6622H35.4974V24.54H34.0747ZM35.4689 18.1451C35.4689 18.659 35.5434 19.1094 35.6925 19.4964C35.8416 19.8834 36.0573 20.1863 36.3396 20.4052C36.6219 20.6209 36.9677 20.7288 37.3769 20.7288C37.8019 20.7288 38.1572 20.6162 38.4427 20.3909C38.7282 20.1626 38.9439 19.8533 39.0898 19.4631C39.2389 19.0729 39.3134 18.6336 39.3134 18.1451C39.3134 17.663 39.2405 17.23 39.0946 16.8461C38.9518 16.4623 38.7361 16.1594 38.4474 15.9373C38.162 15.7153 37.8051 15.6043 37.3769 15.6043C36.9645 15.6043 36.6156 15.7105 36.3301 15.9231C36.0478 16.1356 35.8336 16.4322 35.6877 16.8128C35.5418 17.1935 35.4689 17.6376 35.4689 18.1451ZM44.7392 21.9611C44.2761 21.9611 43.8574 21.8755 43.4831 21.7042C43.1088 21.5297 42.8122 21.2775 42.5933 20.9476C42.3776 20.6178 42.2697 20.2133 42.2697 19.7343C42.2697 19.322 42.349 18.9825 42.5077 18.7161C42.6663 18.4496 42.8804 18.2387 43.15 18.0833C43.4196 17.9278 43.721 17.8105 44.054 17.7312C44.3871 17.6518 44.7265 17.5916 45.0723 17.5503C45.51 17.4996 45.8653 17.4584 46.1381 17.4266C46.4109 17.3917 46.6092 17.3362 46.7329 17.2601C46.8566 17.184 46.9184 17.0603 46.9184 16.889V16.8557C46.9184 16.4401 46.8011 16.1181 46.5663 15.8898C46.3348 15.6614 45.989 15.5472 45.5291 15.5472C45.0501 15.5472 44.6726 15.6534 44.3966 15.866C44.1238 16.0753 43.9351 16.3085 43.8304 16.5654L42.4934 16.2609C42.652 15.8168 42.8835 15.4583 43.1881 15.1855C43.4958 14.9096 43.8494 14.7097 44.2491 14.586C44.6488 14.4591 45.0691 14.3957 45.51 14.3957C45.8019 14.3957 46.1111 14.4306 46.4379 14.5004C46.7678 14.567 47.0755 14.6907 47.3609 14.8715C47.6496 15.0523 47.8859 15.3108 48.0699 15.6471C48.2539 15.9802 48.3459 16.4131 48.3459 16.9461V21.7994H46.9565V20.8001H46.8994C46.8074 20.9841 46.6694 21.1649 46.4855 21.3426C46.3015 21.5202 46.0652 21.6677 45.7765 21.7851C45.4878 21.9024 45.1421 21.9611 44.7392 21.9611ZM45.0485 20.8192C45.4418 20.8192 45.7781 20.7415 46.0572 20.586C46.3395 20.4306 46.5537 20.2276 46.6996 19.977C46.8487 19.7232 46.9232 19.452 46.9232 19.1633V18.2212C46.8724 18.272 46.7741 18.3196 46.6282 18.364C46.4855 18.4052 46.3221 18.4417 46.1381 18.4734C45.9541 18.502 45.7749 18.5289 45.6004 18.5543C45.426 18.5765 45.2801 18.5955 45.1627 18.6114C44.8867 18.6463 44.6345 18.705 44.4061 18.7875C44.1809 18.8699 44.0001 18.9889 43.8637 19.1443C43.7305 19.2966 43.6639 19.4996 43.6639 19.7534C43.6639 20.1055 43.7939 20.3719 44.054 20.5527C44.3142 20.7304 44.6456 20.8192 45.0485 20.8192ZM50.5088 21.7994V14.4909H51.8839V15.6518H51.96C52.0932 15.2585 52.328 14.9492 52.6642 14.724C53.0036 14.4956 53.3875 14.3814 53.8157 14.3814C53.9045 14.3814 54.0092 14.3846 54.1297 14.3909C54.2534 14.3973 54.3502 14.4052 54.42 14.4147V15.7756C54.3629 15.7597 54.2614 15.7423 54.1154 15.7232C53.9695 15.701 53.8236 15.6899 53.6777 15.6899C53.3415 15.6899 53.0417 15.7613 52.7784 15.904C52.5183 16.0436 52.3121 16.2387 52.1599 16.4893C52.0076 16.7367 51.9315 17.019 51.9315 17.3362V21.7994H50.5088ZM57.9806 21.9611C57.5175 21.9611 57.0987 21.8755 56.7244 21.7042C56.3501 21.5297 56.0535 21.2775 55.8347 20.9476C55.619 20.6178 55.5111 20.2133 55.5111 19.7343C55.5111 19.322 55.5904 18.9825 55.749 18.7161C55.9076 18.4496 56.1217 18.2387 56.3914 18.0833C56.661 17.9278 56.9623 17.8105 57.2954 17.7312C57.6285 17.6518 57.9679 17.5916 58.3136 17.5503C58.7514 17.4996 59.1067 17.4584 59.3795 17.4266C59.6523 17.3917 59.8505 17.3362 59.9742 17.2601C60.0979 17.184 60.1598 17.0603 60.1598 16.889V16.8557C60.1598 16.4401 60.0424 16.1181 59.8077 15.8898C59.5761 15.6614 59.2304 15.5472 58.7704 15.5472C58.2914 15.5472 57.914 15.6534 57.638 15.866C57.3652 16.0753 57.1765 16.3085 57.0718 16.5654L55.7347 16.2609C55.8933 15.8168 56.1249 15.4583 56.4294 15.1855C56.7371 14.9096 57.0908 14.7097 57.4905 14.586C57.8902 14.4591 58.3105 14.3957 58.7514 14.3957C59.0432 14.3957 59.3525 14.4306 59.6792 14.5004C60.0091 14.567 60.3168 14.6907 60.6023 14.8715C60.891 15.0523 61.1273 15.3108 61.3113 15.6471C61.4953 15.9802 61.5872 16.4131 61.5872 16.9461V21.7994H60.1979V20.8001H60.1408C60.0488 20.9841 59.9108 21.1649 59.7268 21.3426C59.5428 21.5202 59.3065 21.6677 59.0178 21.7851C58.7292 21.9024 58.3834 21.9611 57.9806 21.9611ZM58.2899 20.8192C58.6832 20.8192 59.0194 20.7415 59.2986 20.586C59.5809 20.4306 59.795 20.2276 59.9409 19.977C60.09 19.7232 60.1646 19.452 60.1646 19.1633V18.2212C60.1138 18.272 60.0155 18.3196 59.8696 18.364C59.7268 18.4052 59.5634 18.4417 59.3795 18.4734C59.1955 18.502 59.0163 18.5289 58.8418 18.5543C58.6673 18.5765 58.5214 18.5955 58.4041 18.6114C58.1281 18.6463 57.8759 18.705 57.6475 18.7875C57.4223 18.8699 57.2415 18.9889 57.1051 19.1443C56.9719 19.2966 56.9052 19.4996 56.9052 19.7534C56.9052 20.1055 57.0353 20.3719 57.2954 20.5527C57.5555 20.7304 57.887 20.8192 58.2899 20.8192ZM67.1617 14.4909V15.6328H63.1697V14.4909H67.1617ZM64.2402 12.7399H65.6629V19.6534C65.6629 19.9294 65.7042 20.1372 65.7866 20.2768C65.8691 20.4132 65.9754 20.5067 66.1054 20.5575C66.2386 20.6051 66.383 20.6289 66.5384 20.6289C66.6526 20.6289 66.7525 20.6209 66.8382 20.6051C66.9238 20.5892 66.9904 20.5765 67.038 20.567L67.295 21.7423C67.2125 21.774 67.0951 21.8057 66.9429 21.8374C66.7906 21.8723 66.6003 21.8913 66.3719 21.8945C65.9976 21.9009 65.6486 21.8342 65.3251 21.6947C65.0015 21.5551 64.7398 21.3394 64.54 21.0476C64.3402 20.7557 64.2402 20.3894 64.2402 19.9484V12.7399ZM69.0035 21.7994V14.4909H70.4261V21.7994H69.0035ZM69.7219 13.3632C69.4745 13.3632 69.262 13.2807 69.0843 13.1158C68.9099 12.9476 68.8226 12.7478 68.8226 12.5162C68.8226 12.2815 68.9099 12.0817 69.0843 11.9167C69.262 11.7486 69.4745 11.6645 69.7219 11.6645C69.9694 11.6645 70.1803 11.7486 70.3548 11.9167C70.5324 12.0817 70.6212 12.2815 70.6212 12.5162C70.6212 12.7478 70.5324 12.9476 70.3548 13.1158C70.1803 13.2807 69.9694 13.3632 69.7219 13.3632ZM75.6866 21.9469C75.0014 21.9469 74.4035 21.7898 73.8928 21.4758C73.3821 21.1618 72.9856 20.7224 72.7032 20.1578C72.4209 19.5932 72.2798 18.9334 72.2798 18.1784C72.2798 17.4203 72.4209 16.7573 72.7032 16.1895C72.9856 15.6217 73.3821 15.1808 73.8928 14.8668C74.4035 14.5527 75.0014 14.3957 75.6866 14.3957C76.3718 14.3957 76.9697 14.5527 77.4804 14.8668C77.9911 15.1808 78.3876 15.6217 78.6699 16.1895C78.9523 16.7573 79.0934 17.4203 79.0934 18.1784C79.0934 18.9334 78.9523 19.5932 78.6699 20.1578C78.3876 20.7224 77.9911 21.1618 77.4804 21.4758C76.9697 21.7898 76.3718 21.9469 75.6866 21.9469ZM75.6913 20.7526C76.1354 20.7526 76.5034 20.6352 76.7952 20.4005C77.0871 20.1657 77.3028 19.8533 77.4423 19.4631C77.5851 19.0729 77.6565 18.6431 77.6565 18.1737C77.6565 17.7074 77.5851 17.2791 77.4423 16.889C77.3028 16.4956 77.0871 16.18 76.7952 15.9421C76.5034 15.7042 76.1354 15.5852 75.6913 15.5852C75.2441 15.5852 74.8729 15.7042 74.5779 15.9421C74.2861 16.18 74.0688 16.4956 73.9261 16.889C73.7865 17.2791 73.7167 17.7074 73.7167 18.1737C73.7167 18.6431 73.7865 19.0729 73.9261 19.4631C74.0688 19.8533 74.2861 20.1657 74.5779 20.4005C74.8729 20.6352 75.2441 20.7526 75.6913 20.7526ZM82.3721 17.4599V21.7994H80.9494V14.4909H82.315V15.6804H82.4054C82.5735 15.2934 82.8368 14.9825 83.1953 14.7478C83.5569 14.5131 84.0121 14.3957 84.5608 14.3957C85.0589 14.3957 85.495 14.5004 85.8693 14.7097C86.2436 14.9159 86.5339 15.2236 86.7401 15.6328C86.9462 16.042 87.0493 16.548 87.0493 17.1507V21.7994H85.6267V17.322C85.6267 16.7922 85.4887 16.3783 85.2127 16.0801C84.9367 15.7787 84.5577 15.6281 84.0755 15.6281C83.7456 15.6281 83.4522 15.6994 83.1953 15.8422C82.9415 15.9849 82.7401 16.1943 82.591 16.4702C82.4451 16.743 82.3721 17.0729 82.3721 17.4599Z" fill="white"/>
<path d="M49.5759 38.8544L45.5563 33.4949L53.5956 33.4949L49.5759 38.8544Z" fill="#FF7262"/>
</g>
</svg>
