<svg width="95" height="51" viewBox="0 0 95 51" fill="none" xmlns="http://www.w3.org/2000/svg">
<rect x="10.2186" y="39.8668" width="74.3868" height="5.36121" rx="2.66037" fill="#85E0A3"/>
<g opacity="0.01">
<rect width="95" height="34.5437" rx="2.66037" fill="#85E0A3"/>
<path d="M15.2522 21.8061H12.0966V12.0584H15.3522C16.3073 12.0584 17.1275 12.2536 17.8129 12.6439C18.4983 13.031 19.0234 13.5878 19.3883 14.3145C19.7564 15.0379 19.9404 15.9058 19.9404 16.918C19.9404 17.9334 19.7548 18.806 19.3836 19.5358C19.0155 20.2656 18.4824 20.8272 17.7844 21.2207C17.0863 21.6109 16.2422 21.8061 15.2522 21.8061ZM13.5674 20.521H15.1713C15.9138 20.521 16.531 20.3814 17.0228 20.1021C17.5146 19.8197 17.8827 19.412 18.127 18.8789C18.3714 18.3427 18.4935 17.689 18.4935 16.918C18.4935 16.1533 18.3714 15.5044 18.127 14.9713C17.8859 14.4382 17.5257 14.0337 17.0466 13.7576C16.5675 13.4816 15.9725 13.3435 15.2618 13.3435H13.5674V20.521ZM25.074 21.9536C24.3537 21.9536 23.7334 21.7997 23.213 21.4919C22.6958 21.181 22.296 20.7447 22.0136 20.1831C21.7344 19.6183 21.5947 18.9567 21.5947 18.1983C21.5947 17.4495 21.7344 16.7895 22.0136 16.2183C22.296 15.6472 22.6894 15.2014 23.194 14.8809C23.7017 14.5604 24.295 14.4002 24.9741 14.4002C25.3866 14.4002 25.7864 14.4684 26.1735 14.6048C26.5606 14.7413 26.908 14.9554 27.2158 15.2474C27.5236 15.5393 27.7663 15.9185 27.944 16.3849C28.1217 16.8482 28.2106 17.4114 28.2106 18.0746V18.5791H22.3991V17.5129H26.816C26.816 17.1385 26.7399 16.8069 26.5876 16.5182C26.4352 16.2263 26.2211 15.9962 25.945 15.828C25.6721 15.6599 25.3516 15.5758 24.9836 15.5758C24.5838 15.5758 24.2347 15.6741 23.9365 15.8709C23.6414 16.0644 23.4129 16.3183 23.2511 16.6324C23.0924 16.9434 23.0131 17.2813 23.0131 17.6462V18.4791C23.0131 18.9678 23.0988 19.3834 23.2701 19.7261C23.4446 20.0688 23.6874 20.3306 23.9983 20.5115C24.3093 20.6892 24.6726 20.778 25.0883 20.778C25.358 20.778 25.6039 20.7399 25.826 20.6638C26.0481 20.5845 26.2401 20.4671 26.4019 20.3116C26.5638 20.1561 26.6875 19.9641 26.7732 19.7357L28.1201 19.9784C28.0123 20.375 27.8187 20.7225 27.5395 21.0207C27.2634 21.3158 26.916 21.5459 26.4971 21.7109C26.0815 21.8727 25.6071 21.9536 25.074 21.9536ZM33.1371 21.9536C32.4295 21.9536 31.8203 21.7934 31.3094 21.4729C30.8017 21.1493 30.4114 20.7034 30.1385 20.1355C29.8657 19.5675 29.7292 18.917 29.7292 18.184C29.7292 17.4415 29.8688 16.7863 30.1481 16.2183C30.4273 15.6472 30.8208 15.2014 31.3284 14.8809C31.8361 14.5604 32.4343 14.4002 33.1228 14.4002C33.6781 14.4002 34.1731 14.5033 34.6078 14.7095C35.0425 14.9126 35.3931 15.1982 35.6597 15.5663C35.9294 15.9343 36.0896 16.3643 36.1404 16.8561H34.7554C34.6792 16.5134 34.5047 16.2183 34.2318 15.9708C33.9621 15.7233 33.6004 15.5996 33.1466 15.5996C32.75 15.5996 32.4025 15.7043 32.1043 15.9137C31.8092 16.12 31.5791 16.415 31.4141 16.799C31.2491 17.1798 31.1666 17.6303 31.1666 18.1507C31.1666 18.6838 31.2475 19.1439 31.4094 19.531C31.5712 19.9181 31.7996 20.218 32.0947 20.4306C32.393 20.6432 32.7436 20.7495 33.1466 20.7495C33.4163 20.7495 33.6606 20.7003 33.8796 20.6019C34.1017 20.5004 34.2873 20.356 34.4365 20.1688C34.5888 19.9816 34.6951 19.7563 34.7554 19.4929H36.1404C36.0896 19.9657 35.9357 20.3877 35.6787 20.759C35.4217 21.1302 35.0774 21.4221 34.6459 21.6347C34.2175 21.8473 33.7146 21.9536 33.1371 21.9536ZM41.0098 21.9536C40.3244 21.9536 39.7263 21.7966 39.2154 21.4824C38.7046 21.1683 38.3079 20.7288 38.0255 20.164C37.7431 19.5992 37.6019 18.9392 37.6019 18.184C37.6019 17.4257 37.7431 16.7625 38.0255 16.1945C38.3079 15.6265 38.7046 15.1855 39.2154 14.8714C39.7263 14.5572 40.3244 14.4002 41.0098 14.4002C41.6952 14.4002 42.2933 14.5572 42.8042 14.8714C43.315 15.1855 43.7117 15.6265 43.9941 16.1945C44.2765 16.7625 44.4177 17.4257 44.4177 18.184C44.4177 18.9392 44.2765 19.5992 43.9941 20.164C43.7117 20.7288 43.315 21.1683 42.8042 21.4824C42.2933 21.7966 41.6952 21.9536 41.0098 21.9536ZM41.0146 20.759C41.4588 20.759 41.8269 20.6416 42.1188 20.4068C42.4107 20.172 42.6265 19.8594 42.7661 19.4691C42.9089 19.0788 42.9803 18.6489 42.9803 18.1793C42.9803 17.7128 42.9089 17.2845 42.7661 16.8942C42.6265 16.5007 42.4107 16.185 42.1188 15.947C41.8269 15.709 41.4588 15.5901 41.0146 15.5901C40.5672 15.5901 40.1959 15.709 39.9008 15.947C39.6089 16.185 39.3915 16.5007 39.2487 16.8942C39.1091 17.2845 39.0393 17.7128 39.0393 18.1793C39.0393 18.6489 39.1091 19.0788 39.2487 19.4691C39.3915 19.8594 39.6089 20.172 39.9008 20.4068C40.1959 20.6416 40.5672 20.759 41.0146 20.759ZM46.2742 21.8061V14.4953H47.6498V15.6567H47.7259C47.8592 15.2632 48.094 14.9539 48.4303 14.7286C48.7699 14.5001 49.1538 14.3859 49.5822 14.3859C49.671 14.3859 49.7757 14.389 49.8963 14.3954C50.02 14.4017 50.1168 14.4097 50.1866 14.4192V15.7804C50.1295 15.7646 50.028 15.7471 49.882 15.7281C49.736 15.7059 49.5901 15.6948 49.4441 15.6948C49.1078 15.6948 48.8079 15.7662 48.5446 15.9089C48.2844 16.0486 48.0781 16.2437 47.9258 16.4944C47.7735 16.7419 47.6974 17.0243 47.6974 17.3416V21.8061H46.2742ZM53.7483 21.9679C53.2851 21.9679 52.8662 21.8822 52.4918 21.7109C52.1174 21.5364 51.8207 21.2841 51.6017 20.9541C51.386 20.6241 51.2781 20.2196 51.2781 19.7404C51.2781 19.3279 51.3574 18.9884 51.5161 18.7219C51.6747 18.4553 51.8889 18.2443 52.1586 18.0888C52.4283 17.9334 52.7298 17.816 53.0629 17.7366C53.3961 17.6573 53.7356 17.597 54.0815 17.5558C54.5194 17.505 54.8748 17.4637 55.1476 17.432C55.4205 17.3971 55.6188 17.3416 55.7426 17.2654C55.8663 17.1893 55.9282 17.0655 55.9282 16.8942V16.8609C55.9282 16.4452 55.8108 16.1231 55.576 15.8947C55.3444 15.6662 54.9985 15.552 54.5384 15.552C54.0593 15.552 53.6817 15.6583 53.4056 15.8709C53.1327 16.0803 52.944 16.3135 52.8392 16.5705L51.5018 16.2659C51.6604 15.8217 51.8921 15.4631 52.1967 15.1902C52.5045 14.9142 52.8583 14.7143 53.2581 14.5905C53.6579 14.4636 54.0783 14.4002 54.5194 14.4002C54.8113 14.4002 55.1207 14.4351 55.4475 14.5049C55.7775 14.5715 56.0853 14.6952 56.3709 14.8761C56.6596 15.057 56.896 15.3156 57.08 15.6519C57.2641 15.9851 57.3561 16.4182 57.3561 16.9513V21.8061H55.9663V20.8066H55.9092C55.8172 20.9906 55.6791 21.1715 55.4951 21.3492C55.3111 21.5269 55.0747 21.6744 54.7859 21.7918C54.4972 21.9092 54.1513 21.9679 53.7483 21.9679ZM54.0577 20.8256C54.4512 20.8256 54.7875 20.7479 55.0667 20.5924C55.3491 20.4369 55.5633 20.2338 55.7093 19.9832C55.8584 19.7293 55.933 19.458 55.933 19.1693V18.2269C55.8822 18.2776 55.7838 18.3252 55.6379 18.3697C55.4951 18.4109 55.3317 18.4474 55.1476 18.4791C54.9636 18.5077 54.7843 18.5347 54.6098 18.56C54.4353 18.5823 54.2893 18.6013 54.1719 18.6172C53.8959 18.6521 53.6436 18.7108 53.4152 18.7933C53.1899 18.8758 53.009 18.9947 52.8726 19.1502C52.7393 19.3025 52.6727 19.5056 52.6727 19.7595C52.6727 20.1117 52.8028 20.3782 53.0629 20.5591C53.3231 20.7368 53.6547 20.8256 54.0577 20.8256ZM62.9323 14.4953V15.6376H58.939V14.4953H62.9323ZM60.0099 12.7438H61.433V19.6595C61.433 19.9356 61.4743 20.1434 61.5568 20.283C61.6393 20.4195 61.7456 20.5131 61.8757 20.5638C62.0089 20.6114 62.1533 20.6352 62.3088 20.6352C62.423 20.6352 62.523 20.6273 62.6086 20.6114C62.6943 20.5956 62.7609 20.5829 62.8085 20.5733L63.0656 21.749C62.9831 21.7807 62.8657 21.8124 62.7134 21.8442C62.561 21.8791 62.3707 21.8981 62.1422 21.9013C61.7678 21.9076 61.4187 21.841 61.0951 21.7014C60.7714 21.5618 60.5097 21.346 60.3098 21.0541C60.1099 20.7621 60.0099 20.3957 60.0099 19.9546V12.7438ZM64.7746 21.8061V14.4953H66.1977V21.8061H64.7746ZM65.4933 13.3673C65.2458 13.3673 65.0332 13.2848 64.8555 13.1198C64.681 12.9517 64.5937 12.7517 64.5937 12.5201C64.5937 12.2853 64.681 12.0854 64.8555 11.9204C65.0332 11.7522 65.2458 11.6681 65.4933 11.6681C65.7408 11.6681 65.9518 11.7522 66.1263 11.9204C66.304 12.0854 66.3929 12.2853 66.3929 12.5201C66.3929 12.7517 66.304 12.9517 66.1263 13.1198C65.9518 13.2848 65.7408 13.3673 65.4933 13.3673ZM69.8034 17.4653V21.8061H68.3803V14.4953H69.7463V15.6852H69.8368C70.0049 15.2981 70.2683 14.9872 70.6268 14.7524C70.9886 14.5176 71.4439 14.4002 71.9928 14.4002C72.491 14.4002 72.9273 14.5049 73.3017 14.7143C73.6762 14.9205 73.9665 15.2283 74.1727 15.6376C74.379 16.047 74.4821 16.5531 74.4821 17.156V21.8061H73.059V17.3273C73.059 16.7974 72.921 16.3833 72.6449 16.0851C72.3689 15.7836 71.9897 15.6329 71.5074 15.6329C71.1774 15.6329 70.8839 15.7043 70.6268 15.8471C70.373 15.9899 70.1715 16.1993 70.0224 16.4753C69.8764 16.7482 69.8034 17.0782 69.8034 17.4653ZM79.7239 24.6999C79.1433 24.6999 78.6435 24.6238 78.2247 24.4715C77.809 24.3191 77.4695 24.1177 77.2061 23.867C76.9428 23.6163 76.746 23.3418 76.6159 23.0436L77.8391 22.5391C77.9248 22.6787 78.0391 22.8262 78.1818 22.9817C78.3278 23.1404 78.5245 23.2752 78.772 23.3863C79.0227 23.4973 79.3448 23.5529 79.7382 23.5529C80.2776 23.5529 80.7235 23.4212 81.0757 23.1578C81.4279 22.8976 81.604 22.4819 81.604 21.9108V20.4734H81.5136C81.4279 20.6289 81.3041 20.8018 81.1423 20.9922C80.9837 21.1826 80.7647 21.3476 80.4855 21.4872C80.2063 21.6268 79.8429 21.6966 79.3955 21.6966C78.818 21.6966 78.2977 21.5618 77.8344 21.292C77.3743 21.0192 77.0094 20.6178 76.7397 20.0879C76.4731 19.5548 76.3399 18.8996 76.3399 18.1222C76.3399 17.3448 76.4716 16.6784 76.7349 16.1231C77.0015 15.5678 77.3664 15.1427 77.8296 14.8476C78.2929 14.5493 78.818 14.4002 79.4051 14.4002C79.8588 14.4002 80.2253 14.4763 80.5045 14.6286C80.7838 14.7777 81.0011 14.9523 81.1566 15.1522C81.3152 15.3521 81.4374 15.5282 81.5231 15.6805H81.6278V14.4953H83.0223V21.9679C83.0223 22.5962 82.8764 23.1118 82.5845 23.5148C82.2925 23.9178 81.8975 24.216 81.3993 24.4096C80.9043 24.6031 80.3459 24.6999 79.7239 24.6999ZM79.7097 20.5162C80.119 20.5162 80.4649 20.421 80.7473 20.2307C81.0328 20.0371 81.2486 19.761 81.3946 19.4025C81.5437 19.0408 81.6183 18.6076 81.6183 18.1031C81.6183 17.6113 81.5453 17.1782 81.3993 16.8037C81.2534 16.4293 81.0392 16.1374 80.7568 15.928C80.4744 15.7154 80.1253 15.6091 79.7097 15.6091C79.2813 15.6091 78.9243 15.7201 78.6388 15.9423C78.3532 16.1612 78.1374 16.4595 77.9915 16.8371C77.8487 17.2147 77.7773 17.6367 77.7773 18.1031C77.7773 18.5823 77.8503 19.0027 77.9962 19.3644C78.1422 19.7261 78.3579 20.0085 78.6435 20.2116C78.9323 20.4147 79.2877 20.5162 79.7097 20.5162Z" fill="black"/>
<path d="M47.576 38.8664L43.5551 33.5052L51.5969 33.5052L47.576 38.8664Z" fill="#85E0A3"/>
</g>
</svg>
