<svg width="163" height="51" viewBox="0 0 163 51" fill="none" xmlns="http://www.w3.org/2000/svg">
<rect y="39.5786" width="163" height="5.32245" rx="2.66037" fill="#1ABCFE"/>
<g opacity="0.01">
<rect x="54.376" width="53.3001" height="34.294" rx="2.66037" fill="#1ABCFE"/>
<path d="M67.7098 11.9713V21.6484H66.2497V11.9713H67.7098ZM73.046 21.7949C72.3435 21.7949 71.7387 21.6358 71.2315 21.3177C70.7275 20.9964 70.3401 20.5538 70.0691 19.9899C69.7982 19.426 69.6628 18.7803 69.6628 18.0526C69.6628 17.3154 69.8014 16.6649 70.0786 16.1011C70.3558 15.5341 70.7464 15.0915 71.2504 14.7733C71.7545 14.4551 72.3483 14.2961 73.0318 14.2961C73.5831 14.2961 74.0745 14.3984 74.5061 14.6032C74.9377 14.8048 75.2858 15.0883 75.5504 15.4537C75.8181 15.8191 75.9772 16.246 76.0276 16.7342H74.6526C74.577 16.394 74.4037 16.1011 74.1328 15.8554C73.865 15.6097 73.5059 15.4868 73.0555 15.4868C72.6617 15.4868 72.3168 15.5908 72.0206 15.7987C71.7277 16.0034 71.4993 16.2964 71.3355 16.6775C71.1717 17.0556 71.0898 17.5029 71.0898 18.0195C71.0898 18.5487 71.1701 19.0055 71.3308 19.3898C71.4914 19.7741 71.7182 20.0718 72.0112 20.2829C72.3073 20.4939 72.6554 20.5995 73.0555 20.5995C73.3232 20.5995 73.5658 20.5506 73.7831 20.453C74.0037 20.3522 74.1879 20.2088 74.336 20.023C74.4872 19.8371 74.5927 19.6135 74.6526 19.352H76.0276C75.9772 19.8214 75.8244 20.2403 75.5693 20.6089C75.3141 20.9775 74.9723 21.2673 74.5439 21.4783C74.1186 21.6894 73.6193 21.7949 73.046 21.7949ZM77.8046 21.6484V14.3906H79.2174V21.6484H77.8046ZM78.5181 13.2707C78.2724 13.2707 78.0613 13.1888 77.8849 13.025C77.7117 12.858 77.625 12.6596 77.625 12.4296C77.625 12.1965 77.7117 11.998 77.8849 11.8342C78.0613 11.6673 78.2724 11.5838 78.5181 11.5838C78.7638 11.5838 78.9733 11.6673 79.1466 11.8342C79.323 11.998 79.4112 12.1965 79.4112 12.4296C79.4112 12.6596 79.323 12.858 79.1466 13.025C78.9733 13.1888 78.7638 13.2707 78.5181 13.2707ZM82.7971 17.3391V21.6484H81.3843V14.3906H82.7404V15.5719H82.8302C82.9971 15.1875 83.2586 14.8788 83.6146 14.6457C83.9737 14.4126 84.4257 14.2961 84.9707 14.2961C85.4653 14.2961 85.8984 14.4 86.2701 14.6079C86.6418 14.8127 86.9301 15.1182 87.1348 15.5246C87.3396 15.931 87.442 16.4334 87.442 17.0319V21.6484H86.0291V17.202C86.0291 16.676 85.8921 16.2649 85.618 15.9688C85.344 15.6695 84.9675 15.5199 84.4887 15.5199C84.1611 15.5199 83.8697 15.5908 83.6146 15.7325C83.3625 15.8743 83.1625 16.0822 83.0145 16.3562C82.8695 16.6271 82.7971 16.9548 82.7971 17.3391ZM92.6459 24.5214C92.0694 24.5214 91.5733 24.4458 91.1575 24.2945C90.7448 24.1433 90.4077 23.9433 90.1463 23.6944C89.8848 23.4456 89.6895 23.1731 89.5603 22.877L90.7747 22.3761C90.8598 22.5147 90.9732 22.6612 91.1149 22.8156C91.2598 22.9731 91.4551 23.1069 91.7009 23.2172C91.9497 23.3275 92.2695 23.3826 92.6601 23.3826C93.1956 23.3826 93.6382 23.2519 93.9878 22.9904C94.3375 22.7321 94.5123 22.3194 94.5123 21.7524V20.3254H94.4226C94.3375 20.4797 94.2147 20.6514 94.054 20.8404C93.8965 21.0294 93.6791 21.1932 93.4019 21.3319C93.1247 21.4705 92.764 21.5398 92.3199 21.5398C91.7465 21.5398 91.2299 21.4059 90.77 21.1381C90.3132 20.8672 89.951 20.4687 89.6832 19.9426C89.4186 19.4134 89.2863 18.7629 89.2863 17.9911C89.2863 17.2194 89.417 16.5578 89.6785 16.0066C89.9431 15.4553 90.3054 15.0332 90.7653 14.7402C91.2252 14.4441 91.7465 14.2961 92.3293 14.2961C92.7798 14.2961 93.1436 14.3717 93.4208 14.5229C93.698 14.6709 93.9138 14.8442 94.0682 15.0426C94.2257 15.2411 94.347 15.4159 94.432 15.5671H94.536V14.3906H95.9205V21.8091C95.9205 22.4328 95.7755 22.9447 95.4857 23.3448C95.1959 23.7448 94.8037 24.041 94.3092 24.2331C93.8177 24.4253 93.2633 24.5214 92.6459 24.5214ZM92.6317 20.3679C93.0381 20.3679 93.3814 20.2734 93.6618 20.0844C93.9453 19.8922 94.1595 19.6182 94.3044 19.2622C94.4525 18.9031 94.5265 18.4731 94.5265 17.9722C94.5265 17.484 94.4541 17.054 94.3092 16.6823C94.1643 16.3106 93.9516 16.0207 93.6713 15.8128C93.3909 15.6018 93.0444 15.4962 92.6317 15.4962C92.2065 15.4962 91.8521 15.6065 91.5686 15.827C91.285 16.0444 91.0708 16.3405 90.9259 16.7153C90.7842 17.0902 90.7133 17.5092 90.7133 17.9722C90.7133 18.4479 90.7857 18.8653 90.9307 19.2244C91.0756 19.5835 91.2898 19.8639 91.5733 20.0655C91.8599 20.2671 92.2128 20.3679 92.6317 20.3679Z" fill="white"/>
<path d="M81.6016 38.5854L77.6097 33.2629L85.5934 33.2629L81.6016 38.5854Z" fill="#1ABCFE"/>
</g>
</svg>
