<svg width="22" height="22" viewBox="0 0 22 22" fill="none" xmlns="http://www.w3.org/2000/svg">
<path fill-rule="evenodd" clip-rule="evenodd" d="M11 4.81248C11 4.52922 10.6766 4.36752 10.45 4.53748L5.50003 8.24998H3.43753C3.05784 8.24998 2.75003 8.55779 2.75003 8.93748V13.0625C2.75003 13.4422 3.05784 13.75 3.43753 13.75H5.50003L10.45 17.4625C10.6766 17.6324 11 17.4708 11 17.1875V4.81248ZM13.4984 7.67927C13.6882 7.35044 14.1087 7.23778 14.4375 7.42763C15.0646 7.78967 15.5853 8.3104 15.9474 8.93748C16.3094 9.56456 16.5 10.2759 16.5 11C16.5 11.7241 16.3094 12.4354 15.9474 13.0625C15.5853 13.6896 15.0646 14.2103 14.4375 14.5723C14.1087 14.7622 13.6882 14.6495 13.4984 14.3207C13.3085 13.9919 13.4212 13.5714 13.75 13.3816C14.1681 13.1402 14.5152 12.793 14.7566 12.375C14.998 11.9569 15.125 11.4827 15.125 11C15.125 10.5173 14.998 10.043 14.7566 9.62498C14.5152 9.20693 14.1681 8.85978 13.75 8.61841C13.4212 8.42857 13.3085 8.0081 13.4984 7.67927ZM15.8125 5.04606C15.4837 4.85621 15.0632 4.96887 14.8734 5.2977C14.6835 5.62653 14.7962 6.04699 15.125 6.23684C15.9611 6.71957 16.6555 7.41388 17.1382 8.24998C17.6209 9.08609 17.875 10.0345 17.875 11C17.875 11.9654 17.6209 12.9139 17.1382 13.75C16.6555 14.5861 15.9611 15.2804 15.125 15.7631C14.7962 15.953 14.6835 16.3734 14.8734 16.7023C15.0632 17.0311 15.4837 17.1438 15.8125 16.9539C16.8577 16.3505 17.7256 15.4826 18.329 14.4375C18.9324 13.3924 19.25 12.2068 19.25 11C19.25 9.79317 18.9324 8.60761 18.329 7.56248C17.7256 6.51735 16.8577 5.64946 15.8125 5.04606Z" fill="white"/>
</svg>
